<?xml version="1.0" encoding="UTF-8"?>
<!DOCTYPE svg PUBLIC "-//W3C//DTD SVG 1.1//EN" "http://www.w3.org/Graphics/SVG/1.1/DTD/svg11.dtd">
<!-- Creator: CorelDRAW -->
<svg xmlns="http://www.w3.org/2000/svg" xml:space="preserve" width="512px" height="512px" version="1.1" style="shape-rendering:geometricPrecision; text-rendering:geometricPrecision; image-rendering:optimizeQuality; fill-rule:evenodd; clip-rule:evenodd"
viewBox="0 0 512 512"
 xmlns:xlink="http://www.w3.org/1999/xlink">
 <defs>
  <style type="text/css">
   <![CDATA[
    .fil0 {fill:black}
   ]]>
  </style>
 </defs>
 <g id="Layer_x0020_1">
  <metadata id="CorelCorpID_0Corel-Layer"/>
  <g id="_407436840">
   <g>
    <g id="_407429016">
     <path class="fil0" d="M256 285c-57,0 -104,-46 -104,-104l0 -77c0,-57 47,-104 104,-104 57,0 104,47 104,104l0 77c0,58 -47,104 -104,104zm0 -271c-50,0 -90,40 -90,90l0 77c0,50 40,90 90,90 50,0 90,-40 90,-90l0 -77c0,-50 -40,-90 -90,-90z"/>
    </g>
    <g id="_407424288">
     <path class="fil0" d="M353 106l-194 0c-4,0 -7,-3 -7,-7 0,-4 3,-7 7,-7l194 0c4,0 7,3 7,7 0,4 -3,7 -7,7z"/>
    </g>
    <g id="_407424792">
     <path class="fil0" d="M318 217c-7,0 -13,-3 -17,-9 -9,-13 -21,-19 -37,-18 -10,0 -19,3 -21,5 -16,14 -32,21 -48,20 -25,-2 -41,-24 -42,-25 -2,-3 -1,-7 2,-9 3,-3 8,-2 10,1 0,1 13,18 31,19 13,1 25,-5 38,-17 0,-1 1,-1 2,-2 0,0 12,-5 27,-6 21,-1 38,7 49,24 2,2 4,3 8,3 10,-1 24,-16 26,-24 2,-4 6,-6 9,-4 4,1 6,5 5,8 -4,12 -21,31 -38,34 -1,0 -3,0 -4,0z"/>
    </g>
    <g id="_407420880">
     <path class="fil0" d="M209 303c-4,0 -7,-3 -7,-7l0 -30c0,-4 3,-7 7,-7 4,0 7,3 7,7l0 30c0,4 -3,7 -7,7z"/>
    </g>
    <g id="_407424744">
     <path class="fil0" d="M303 303c-4,0 -7,-3 -7,-7l0 -30c0,-4 3,-7 7,-7 4,0 7,3 7,7l0 30c0,4 -3,7 -7,7z"/>
    </g>
    <g id="_407412216">
     <path class="fil0" d="M442 512l-372 0c-4,0 -7,-3 -7,-7l0 -94c0,-1 0,-1 0,-1 4,-32 13,-53 29,-65 14,-11 31,-13 47,-15 25,-3 48,-6 64,-37 1,-2 3,-3 5,-3 2,-1 4,0 6,1l43 38 41 -38c2,-1 4,-2 6,-1 2,0 4,1 5,3 16,31 39,34 64,37 16,2 33,4 47,15 16,12 25,33 29,65 0,0 0,0 0,1l0 94c0,4 -3,7 -7,7zm-365 -14l358 0 0 -87c-7,-60 -32,-63 -64,-67 -24,-3 -51,-7 -70,-37l-40 36c-2,3 -6,3 -9,0l-41 -36c-19,30 -46,34 -70,37 -32,4 -57,7 -64,67l0 87z"/>
    </g>
    <g id="_407423928">
     <path class="fil0" d="M131 511c-4,0 -7,-3 -7,-7l-1 -86c0,-4 3,-7 7,-7 4,0 7,3 7,7l1 86c0,4 -3,7 -7,7 0,0 0,0 0,0zm258 0c-4,0 -7,-3 -7,-7l-1 -86c0,-4 3,-7 7,-7 4,0 7,3 7,7l1 86c0,4 -4,7 -7,7 0,0 0,0 0,0z"/>
    </g>
    <g>
     <g id="_407443104">
      <path class="fil0" d="M261 409l-9 0c-3,0 -7,-3 -7,-7 0,-4 4,-7 7,-7l9 0c4,0 7,3 7,7 0,4 -3,7 -7,7z"/>
     </g>
     <g id="_407438568">
      <path class="fil0" d="M261 435l-9 0c-3,0 -7,-3 -7,-7 0,-3 4,-7 7,-7l9 0c4,0 7,4 7,7 0,4 -3,7 -7,7z"/>
     </g>
     <g id="_407437152">
      <path class="fil0" d="M261 462l-9 0c-3,0 -7,-3 -7,-7 0,-4 4,-7 7,-7l9 0c4,0 7,3 7,7 0,4 -3,7 -7,7z"/>
     </g>
     <g id="_407426496">
      <path class="fil0" d="M261 488l-9 0c-3,0 -7,-3 -7,-7 0,-3 4,-7 7,-7l9 0c4,0 7,4 7,7 0,4 -3,7 -7,7z"/>
     </g>
    </g>
    <g id="_407422920">
     <path class="fil0" d="M257 386c-4,0 -7,-4 -7,-7l0 -41c0,-4 3,-7 7,-7 4,0 7,3 7,7l0 41c0,3 -3,7 -7,7z"/>
    </g>
   </g>
  </g>
 </g>
</svg>
